<svg width="141" height="1" viewBox="0 0 141 1" fill="none" xmlns="http://www.w3.org/2000/svg">
<g opacity="0.6">
<mask id="path-1-inside-1_5_4450" fill="white">
<path d="M0.90625 0H140.172V1H0.90625V0Z"/>
</mask>
<path d="M0.90625 1.5H2.39838V0.5H0.90625V1.5ZM4.38789 1.5H7.37215V0.5H4.38789V1.5ZM9.36166 1.5H12.3459V0.5H9.36166V1.5ZM14.3354 1.5H17.3197V0.5H14.3354V1.5ZM19.3092 1.5H22.2935V0.5H19.3092V1.5ZM24.283 1.5H27.2672V0.5H24.283V1.5ZM29.2568 1.5H32.241V0.5H29.2568V1.5ZM34.2305 1.5H37.2148V0.5H34.2305V1.5ZM39.2043 1.5H42.1886V0.5H39.2043V1.5ZM44.1781 1.5H47.1623V0.5H44.1781V1.5ZM49.1519 1.5H52.1361V0.5H49.1519V1.5ZM54.1256 1.5H57.1099V0.5H54.1256V1.5ZM59.0994 1.5H62.0837V0.5H59.0994V1.5ZM64.0732 1.5H67.0574V0.5H64.0732V1.5ZM69.0469 1.5H72.0312V0.5H69.0469V1.5ZM74.0207 1.5H77.005V0.5H74.0207V1.5ZM78.9945 1.5H81.9787V0.5H78.9945V1.5ZM83.9683 1.5H86.9525V0.5H83.9683V1.5ZM88.942 1.5H91.9263V0.5H88.942V1.5ZM93.9158 1.5H96.9001V0.5H93.9158V1.5ZM98.8896 1.5H101.874V0.5H98.8896V1.5ZM103.863 1.5H106.848V0.5H103.863V1.5ZM108.837 1.5H111.821V0.5H108.837V1.5ZM113.811 1.5H116.795V0.5H113.811V1.5ZM118.785 1.5H121.769V0.5H118.785V1.5ZM123.758 1.5H126.743V0.5H123.758V1.5ZM128.732 1.5H131.716V0.5H128.732V1.5ZM133.706 1.5H136.69V0.5H133.706V1.5ZM138.68 1.5H140.172V0.5H138.68V1.5ZM0.90625 2H2.39838V0H0.90625V2ZM4.38789 2H7.37215V0H4.38789V2ZM9.36166 2H12.3459V0H9.36166V2ZM14.3354 2H17.3197V0H14.3354V2ZM19.3092 2H22.2935V0H19.3092V2ZM24.283 2H27.2672V0H24.283V2ZM29.2568 2H32.241V0H29.2568V2ZM34.2305 2H37.2148V0H34.2305V2ZM39.2043 2H42.1886V0H39.2043V2ZM44.1781 2H47.1623V0H44.1781V2ZM49.1519 2H52.1361V0H49.1519V2ZM54.1256 2H57.1099V0H54.1256V2ZM59.0994 2H62.0837V0H59.0994V2ZM64.0732 2H67.0574V0H64.0732V2ZM69.0469 2H72.0312V0H69.0469V2ZM74.0207 2H77.005V0H74.0207V2ZM78.9945 2H81.9787V0H78.9945V2ZM83.9683 2H86.9525V0H83.9683V2ZM88.942 2H91.9263V0H88.942V2ZM93.9158 2H96.9001V0H93.9158V2ZM98.8896 2H101.874V0H98.8896V2ZM103.863 2H106.848V0H103.863V2ZM108.837 2H111.821V0H108.837V2ZM113.811 2H116.795V0H113.811V2ZM118.785 2H121.769V0H118.785V2ZM123.758 2H126.743V0H123.758V2ZM128.732 2H131.716V0H128.732V2ZM133.706 2H136.69V0H133.706V2ZM138.68 2H140.172V0H138.68V2Z" fill="#DD3333" mask="url(#path-1-inside-1_5_4450)"/>
</g>
</svg>
